<svg version="1.1" id="Layer_1" xmlns="http://www.w3.org/2000/svg" xmlns:xlink="http://www.w3.org/1999/xlink" x="0px" y="0px"
	 width="100%" viewBox="0 0 686 363" enable-background="new 0 0 686 363" xml:space="preserve">
<path fill="#000000" opacity="1.000000" stroke="none" 
	d="
M509.000000,364.000000 
	C339.373627,364.000000 170.247238,364.000000 1.060423,364.000000 
	C1.060423,243.069122 1.060423,122.138199 1.060423,1.103642 
	C229.543091,1.103642 458.086243,1.103642 686.814697,1.103642 
	C686.814697,121.999763 686.814697,242.999863 686.814697,364.000000 
	C627.804810,364.000000 568.652405,364.000000 509.000000,364.000000 
M556.326355,129.177109 
	C554.650818,130.951324 551.931702,132.647705 556.769165,134.980881 
	C564.154358,134.171555 571.545715,132.393616 578.911926,134.561707 
	C579.055359,135.050690 579.198792,135.539673 579.342224,136.028656 
	C570.894714,139.870178 562.447205,143.711716 553.999695,147.553238 
	C554.083862,147.951752 554.168030,148.350266 554.252197,148.748779 
	C555.535522,149.107620 556.818848,149.466461 558.942749,149.964355 
	C562.027161,149.639862 565.104492,149.163742 568.197327,149.017853 
	C579.883972,148.466522 586.662842,143.985428 591.008118,132.005234 
	C591.008118,132.005234 591.044312,132.058899 591.729187,131.850174 
	C593.972046,128.880981 597.002502,126.093941 594.016907,121.992180 
	C594.016907,121.992180 594.091431,122.001495 593.903625,121.479614 
	C593.578125,121.381950 593.252625,121.284286 592.549011,121.045807 
	C592.549011,121.045807 592.147217,121.008858 591.837463,120.410271 
	C591.193176,120.345222 590.548950,120.280174 589.362122,120.063293 
	C588.987061,120.051308 588.612000,120.039314 587.825500,119.362480 
	C586.557251,119.295837 585.288940,119.229187 583.607117,119.032814 
	C583.607117,119.032814 583.174194,119.013374 582.666016,118.281235 
	C576.904785,118.195999 571.124084,117.827026 565.395447,118.218292 
	C563.900208,118.320419 562.566650,120.789558 561.033020,122.453949 
	C561.033020,122.453949 561.035034,122.763062 560.395752,123.084854 
	C559.226807,125.047806 558.057800,127.010750 556.961243,128.972717 
	C556.961243,128.972717 556.959717,128.900299 556.326355,129.177109 
M174.715073,142.949417 
	C176.755249,141.634125 178.795425,140.318832 181.138657,138.420731 
	C181.755875,138.233505 182.373093,138.046280 183.724976,138.245865 
	C185.296051,138.486542 186.876999,138.984009 188.436493,138.923935 
	C195.626450,138.647110 202.810394,138.214951 210.625183,138.195160 
	C209.271790,139.460220 208.131226,141.236984 206.528885,141.903458 
	C198.809921,145.113953 190.966492,148.025131 182.199432,151.416931 
	C183.802048,152.457458 185.073303,153.989304 186.118393,153.848022 
	C193.519867,152.847397 201.069092,152.165878 208.188919,150.078613 
	C214.966980,148.091522 219.258759,142.552917 222.677429,135.738419 
	C223.793732,133.513397 224.910034,131.288376 226.072784,129.061630 
	C226.072784,129.061630 226.068619,129.015335 226.727631,128.645874 
	C226.094437,127.231216 225.683350,124.763458 224.791458,124.575356 
	C219.587830,123.477898 214.271469,122.914925 208.325394,122.031227 
	C207.874527,122.073509 207.423645,122.115784 206.054886,122.018753 
	C201.947342,122.018753 197.839798,122.018753 193.882568,122.018753 
	C190.808731,126.656326 187.850159,131.175308 184.793472,135.626938 
	C184.548080,135.984329 183.627136,135.877869 183.232712,135.270828 
	C183.482162,134.514709 183.945847,133.755951 183.936523,133.003036 
	C183.916977,131.423431 183.648712,129.846909 183.482559,128.269119 
	C181.862610,128.793594 180.186661,129.190262 178.634735,129.870056 
	C175.706421,131.152756 172.885849,132.682129 169.953995,133.955933 
	C165.987198,135.679413 161.957764,137.258743 157.479782,139.055969 
	C157.304749,139.327988 157.129715,139.600006 156.133179,139.971039 
	C150.928635,141.643875 145.653992,143.128220 140.535263,145.031830 
	C131.952927,148.223526 123.622559,152.178543 114.894226,154.863251 
	C108.534660,156.819351 107.930634,161.999893 106.248482,166.740021 
	C105.932968,167.629089 107.108139,169.047165 107.254196,169.399078 
	C111.607109,167.743134 115.176811,166.388992 118.743729,165.027557 
	C132.770081,159.673920 146.824753,154.392273 160.799698,148.907608 
	C164.054718,147.630127 167.037643,145.659348 170.778809,143.727402 
	C171.853851,143.429214 172.928879,143.131027 174.715073,142.949417 
M405.214081,118.970085 
	C403.932281,120.074738 402.650513,121.179382 400.834961,122.761406 
	C394.348328,128.933807 395.589691,133.656937 406.228546,142.294785 
	C390.656158,159.017319 371.653564,171.346359 353.153595,184.644836 
	C357.506989,184.284103 361.539490,183.314362 365.031860,181.372986 
	C373.383545,176.730408 381.735687,171.999619 389.589447,166.582199 
	C394.648743,163.092361 399.321960,158.739868 403.278534,154.027069 
	C408.862610,147.375732 411.222870,145.755432 416.252167,147.847183 
	C422.282837,142.221451 422.502533,139.280563 417.011749,136.148392 
	C417.374329,134.912262 417.945679,133.695175 418.060577,132.436432 
	C418.414337,128.561493 419.236115,124.555511 418.569641,120.834442 
	C418.236267,118.973251 415.188690,116.565727 413.139923,116.321007 
	C410.878876,116.050926 408.355682,117.975655 405.214081,118.970085 
M23.786360,265.763611 
	C18.040043,267.907776 19.454182,273.812317 16.156929,278.731293 
	C18.769741,278.476501 20.205118,278.669983 21.328327,278.166718 
	C25.267498,276.401855 29.172783,274.530609 32.952057,272.447784 
	C37.207172,270.102692 41.233906,267.341644 45.499168,265.016876 
	C53.205006,260.816833 60.946205,256.669708 68.802971,252.762527 
	C74.569237,249.894958 79.623734,246.520020 81.493652,239.915619 
	C81.859192,238.624527 82.051575,237.284424 82.323822,235.966904 
	C80.843422,236.001007 79.342804,235.900070 77.889900,236.117722 
	C76.956802,236.257523 76.056595,236.799408 75.205193,237.274872 
	C61.060558,245.173660 46.940865,253.117294 32.776546,260.980530 
	C29.963404,262.542236 26.987860,263.811401 24.276356,264.547607 
	C25.534683,263.045166 26.497869,261.008636 28.097868,260.124512 
	C41.344814,252.804565 54.413288,245.050476 68.147690,238.764816 
	C76.646500,234.875244 82.142097,229.626831 84.024834,220.634949 
	C84.362976,219.019958 84.017883,217.261902 83.988251,215.569885 
	C82.244789,215.751495 80.309776,215.506958 78.791473,216.189453 
	C72.662071,218.944748 66.664909,221.993637 60.611641,224.919067 
	C55.717232,227.284439 50.833351,227.853256 45.776180,225.210449 
	C43.886486,224.222900 41.542641,224.075592 39.705532,223.022446 
	C36.225708,221.027618 32.962383,218.655151 29.609123,216.439560 
	C31.571653,214.479309 33.542820,212.527588 35.490421,210.552612 
	C35.955452,210.081055 36.270168,209.444107 36.775318,209.031860 
	C44.120174,203.037857 49.566063,203.828430 54.658508,211.806976 
	C56.554523,214.777542 59.007549,214.235840 59.960964,211.958618 
	C61.799961,207.566147 63.592144,202.796982 63.749691,198.128174 
	C64.139244,186.584290 57.256729,182.362701 48.354225,185.684509 
	C33.107742,191.373459 22.204130,202.760071 18.694820,218.750626 
	C16.259510,229.847382 16.327633,235.762421 28.456951,240.509735 
	C29.094131,240.759125 29.513893,241.563995 29.174456,241.208084 
	C27.593670,244.128433 26.176847,246.249680 25.250845,248.567032 
	C23.661594,252.544220 22.536085,256.707977 20.920319,260.672943 
	C19.489044,264.185211 20.785135,265.302887 23.786360,265.763611 
M359.265991,213.083786 
	C340.734253,210.842743 322.202515,208.601700 302.928680,206.270905 
	C304.937805,202.517487 307.077271,199.657501 308.082642,196.442795 
	C312.129944,183.501587 311.603577,170.094147 310.776520,156.846222 
	C309.630341,138.485306 307.651642,120.175819 305.992126,101.847687 
	C305.123962,92.259499 303.933380,82.693367 303.346161,73.089294 
	C302.925476,66.209663 303.264374,59.283596 303.264374,52.367622 
	C303.727753,52.678589 304.595398,53.400200 305.579742,53.884670 
	C306.703735,54.437881 307.931641,54.779991 310.609406,55.762196 
	C305.643250,40.000244 301.396271,25.407495 294.700226,11.377166 
	C291.866425,15.763847 289.984222,20.089312 288.186768,24.449717 
	C286.892456,27.589582 286.254486,30.504545 288.510529,33.822414 
	C290.009735,36.027218 290.663116,39.078129 290.902069,41.819439 
	C291.707642,51.060524 292.114929,60.335545 292.755157,69.592003 
	C293.807526,84.807243 294.837067,100.024925 296.043732,115.228287 
	C296.777832,124.477776 298.057556,133.686752 298.679779,142.941666 
	C299.637115,157.180679 300.234100,171.443832 300.998352,185.695969 
	C301.152832,188.576645 299.970551,189.719330 296.959412,190.015274 
	C291.188080,190.582489 285.448669,191.576523 279.735657,192.612167 
	C270.566437,194.274307 261.490021,196.741516 252.255096,197.632858 
	C247.101669,198.130264 244.621674,200.492279 243.166351,204.535461 
	C241.664551,208.707733 240.838852,213.123352 239.629517,217.770035 
	C263.435425,220.834213 287.054565,223.874359 311.772461,227.055923 
	C310.792603,229.010513 310.488831,230.772781 309.481384,231.394073 
	C307.123169,232.848404 304.492767,233.944931 301.857697,234.852844 
	C287.879669,239.668945 274.005219,244.859238 259.824554,248.992477 
	C246.468002,252.885498 232.778992,255.640594 219.221237,258.832550 
	C218.576508,258.984375 217.786285,258.518219 217.047226,258.335754 
	C222.133072,241.420532 219.078293,198.836258 211.969131,191.925003 
	C211.231796,193.537354 210.528152,194.927750 209.949234,196.368271 
	C207.723068,201.907425 205.317825,207.387634 203.386139,213.029129 
	C200.347137,221.904434 197.357025,230.815262 194.868134,239.854767 
	C192.490631,248.489578 192.206161,258.324280 180.345840,260.028473 
	C179.880585,260.095337 179.472626,260.497009 179.014160,260.684418 
	C160.914917,268.083038 144.621140,278.105804 131.665939,293.046326 
	C127.223694,298.169342 123.052177,303.634979 118.015121,308.108826 
	C110.628899,314.669189 102.686272,320.626434 94.764992,326.552307 
	C89.989281,330.125031 83.925591,331.395599 78.626007,329.426697 
	C72.642242,327.203613 68.557861,322.303436 67.905106,315.184845 
	C66.894127,304.159668 68.180382,293.637390 73.128563,283.609985 
	C75.257225,279.296265 77.081375,274.816650 78.763229,270.307739 
	C79.258400,268.980225 78.792343,267.294220 78.766808,265.772491 
	C77.310371,266.510010 75.804199,267.167633 74.423836,268.027313 
	C73.924995,268.337952 73.699249,269.118134 73.396919,269.708679 
	C66.894577,282.410004 61.026505,295.174713 60.784023,309.990204 
	C60.583477,322.243774 62.931019,333.239746 72.814705,341.140167 
	C79.396400,346.401123 87.469795,350.995697 95.641151,346.309174 
	C104.608276,341.166199 112.944550,334.553375 120.552406,327.498993 
	C131.364441,317.473541 140.788452,305.941345 151.689529,296.024719 
	C161.296051,287.285736 173.357300,282.249115 184.630554,278.067291 
	C186.100555,280.872406 186.971512,284.908905 188.679062,285.300903 
	C192.285156,286.128693 192.033966,288.626434 192.558746,290.745941 
	C196.092438,305.017700 203.966324,315.912567 217.669510,321.639984 
	C226.314072,325.253082 236.785355,325.646149 243.085419,318.133789 
	C249.393356,310.612061 250.979340,289.514038 241.415817,280.558167 
	C239.671432,278.924622 238.095490,277.111176 236.423050,275.361206 
	C246.357590,272.506683 255.681610,269.781433 265.043304,267.192505 
	C266.300446,266.844849 268.671906,266.752075 268.924652,267.291809 
	C269.550629,268.628571 269.629272,270.499268 269.245361,271.978241 
	C268.182678,276.071960 264.710876,281.046387 266.037048,283.860168 
	C267.578766,287.131378 273.206360,288.474487 277.055634,290.663177 
	C277.634521,290.992340 278.186340,291.369080 278.750427,291.724213 
	C281.607300,293.522888 283.638763,293.014191 285.105377,289.801208 
	C286.532715,286.674500 288.405487,283.751770 289.845703,280.630157 
	C291.298767,277.480865 291.681610,274.522217 287.424225,272.993927 
	C284.947479,272.104858 282.412201,271.167175 280.223938,269.754578 
	C278.543457,268.669800 277.364227,266.808594 275.962067,265.292694 
	C277.560608,264.253479 279.045074,262.940216 280.776245,262.219635 
	C291.732086,257.659302 303.144012,254.003418 313.631195,248.557968 
	C326.148132,242.058594 338.813232,236.446655 352.734314,234.072037 
	C355.058807,233.675522 357.635498,234.977173 360.042450,234.794250 
	C363.973694,234.495499 367.962067,232.737793 371.746460,233.170181 
	C380.095123,234.124130 385.516266,231.578522 387.602570,223.126007 
	C388.357758,220.066559 389.263885,217.044357 389.553223,213.331268 
	C379.764252,213.264435 369.975250,213.197617 359.265991,213.083786 
M444.539093,215.101379 
	C439.838989,193.083817 433.778870,171.569382 420.960541,150.721848 
	C419.747650,154.904541 419.289612,157.804031 418.096313,160.360321 
	C413.954956,169.232193 416.905640,177.470139 419.695343,185.895798 
	C423.014130,195.919296 426.288879,205.984436 428.904114,216.205170 
	C430.952423,224.210312 431.268402,232.688492 433.623322,240.577637 
	C436.377045,249.802933 434.289886,257.618164 428.185120,264.064026 
	C421.149750,271.492462 413.007751,277.859222 405.586395,284.938721 
	C392.746613,297.187042 377.393066,305.354095 361.298065,312.159515 
	C350.353943,316.787018 339.802948,310.941345 338.336975,299.588867 
	C337.600311,293.884155 337.551147,287.813873 338.670349,282.204041 
	C340.973175,270.661713 344.346252,259.335968 347.088593,247.875534 
	C347.580658,245.819153 347.158569,243.544037 347.158569,241.369934 
	C346.458893,241.286865 345.759216,241.203796 345.059540,241.120728 
	C342.451324,247.779526 339.365448,254.298355 337.362274,261.134430 
	C335.128815,268.756226 333.843842,276.658966 332.217194,284.454254 
	C331.419342,288.277740 330.159607,292.143799 330.215179,295.974548 
	C330.303925,302.088715 331.217499,308.201385 331.956635,314.293518 
	C333.679718,328.495209 341.776215,334.175018 355.896149,332.692474 
	C370.977936,331.108948 382.945618,323.292908 394.664459,314.925873 
	C401.452911,310.079071 407.416229,304.093536 413.964752,298.889618 
	C422.577209,292.045563 429.457886,283.786743 434.535675,274.111816 
	C436.031372,271.261993 436.321808,267.779572 437.522552,263.230988 
	C438.293060,265.885956 438.612854,267.143005 439.021210,268.370636 
	C442.460144,278.710052 443.250885,289.829437 449.389618,299.419708 
	C452.775330,304.709106 456.874969,308.087738 462.661133,309.928558 
	C473.585632,313.404022 484.318451,311.665466 495.106445,309.144714 
	C500.831848,307.806976 506.947815,305.333160 512.405457,306.247925 
	C523.403076,308.091125 534.218506,308.759216 545.104309,306.818939 
	C554.684937,305.111267 563.602722,301.347107 571.024292,294.965851 
	C578.862061,288.226807 580.232971,278.997711 580.059631,269.161804 
	C579.822510,255.698853 576.563904,251.005066 564.112305,245.874069 
	C558.501221,243.561874 553.110840,240.484024 548.092773,237.060928 
	C545.632263,235.382523 541.945801,231.971680 545.161804,228.845840 
	C549.110962,225.007294 554.346008,222.476456 559.107971,219.513367 
	C559.575317,219.222565 560.738953,219.682449 561.377930,220.101288 
	C563.793030,221.684280 566.520142,223.037140 568.408691,225.128021 
	C572.846375,230.041046 578.434143,232.441010 584.629395,234.048462 
	C597.149292,237.296936 614.809509,233.325256 621.115906,219.050812 
	C622.609192,215.670837 624.753845,212.578690 626.604980,209.343414 
	C638.070679,217.425888 650.039917,222.781403 663.740479,224.397293 
	C668.124329,224.914307 669.702026,223.242874 671.471252,220.127838 
	C679.252075,206.427872 677.925598,192.895081 670.922180,179.436523 
	C665.906555,169.797882 653.449524,167.581451 645.480347,175.075989 
	C641.984436,178.363693 638.982788,182.175354 635.731995,185.726440 
	C634.869385,186.668777 633.680481,188.440048 633.041138,188.275696 
	C628.988647,187.234100 628.355896,190.545868 626.862183,192.721817 
	C624.244629,196.534866 621.886902,200.538803 619.101929,204.222031 
	C610.982971,214.959625 599.472412,216.228592 587.393921,214.614120 
	C584.191284,214.186050 581.291870,211.489883 578.253296,209.835114 
	C578.262085,209.123856 578.270935,208.412613 578.279785,207.701355 
	C584.924194,205.502335 591.608826,203.414017 598.184448,201.025650 
	C599.808228,200.435883 601.660400,199.161118 602.390991,197.694794 
	C604.005005,194.454926 604.961060,190.888824 606.206909,187.463593 
	C607.505249,183.894012 606.523560,181.217667 603.001892,179.724136 
	C598.174500,177.676849 593.334473,175.644455 588.421448,173.816620 
	C576.999084,169.567047 564.982849,169.032776 553.168823,170.259079 
	C543.030090,171.311447 533.075500,174.292740 523.110291,176.712372 
	C521.405029,177.126404 519.468445,178.697266 518.653381,180.262207 
	C516.440796,184.510422 514.754944,189.034805 512.895386,193.464462 
	C511.505615,196.775101 512.590027,198.498581 516.170898,197.636169 
	C528.777893,194.599945 536.902161,202.382690 544.981262,208.436386 
	C541.154053,214.804657 537.391174,220.414993 534.368591,226.399246 
	C533.065186,228.979828 531.940369,230.027649 529.020081,230.344727 
	C520.341003,231.287140 512.855530,235.482422 508.164307,242.563400 
	C499.533325,255.590988 491.309753,269.048401 493.866394,285.976410 
	C494.042419,287.141968 492.137238,289.449158 490.787079,289.856201 
	C487.326538,290.899628 483.585541,291.860779 480.042267,291.615906 
	C471.025452,290.992706 461.258301,291.057098 456.521027,281.126160 
	C454.135254,276.124695 451.951385,270.755829 451.124969,265.332367 
	C448.626038,248.932510 446.835663,232.424713 444.539093,215.101379 
M107.984467,291.041046 
	C108.545334,288.788757 109.570854,286.541168 109.593628,284.283447 
	C109.777550,266.045349 110.282822,247.788162 109.668533,229.571259 
	C109.155060,214.344376 107.319183,199.159027 105.962807,183.964767 
	C105.154114,174.905640 104.089615,165.869568 103.240517,156.813721 
	C102.805710,152.176422 102.591621,147.518433 102.244026,142.369751 
	C103.623802,142.953018 104.121414,143.060425 104.491028,143.338150 
	C105.814781,144.332825 107.095184,145.385178 108.391975,146.415726 
	C108.889244,144.446121 109.667351,142.493546 109.788300,140.501099 
	C109.873627,139.095444 109.115410,137.619904 108.651077,136.202667 
	C106.118378,128.472290 103.678627,120.708237 100.959930,113.043373 
	C99.621895,109.271034 97.751328,105.687592 96.121735,102.018669 
	C95.520493,102.050041 94.919258,102.081421 94.318016,102.112793 
	C92.739769,106.524628 90.822212,110.852226 89.698891,115.376999 
	C88.909645,118.556137 88.735207,122.060982 89.134377,125.316383 
	C89.589455,129.027695 91.531219,132.574951 91.861565,136.279587 
	C92.567741,144.199158 92.565704,152.179016 93.011658,160.125320 
	C93.615898,170.892227 94.273148,181.658066 95.094574,192.410095 
	C95.548126,198.346863 96.401421,204.252518 97.042709,210.175659 
	C98.004715,219.060959 99.145599,227.933273 99.834320,236.840195 
	C100.774361,248.997391 101.430115,261.178314 102.062462,273.356628 
	C102.291344,277.764618 101.967308,282.199768 102.146355,286.612366 
	C102.282623,289.970581 101.822342,293.725739 105.778702,296.227478 
	C106.661156,294.353271 107.279396,293.040253 107.984467,291.041046 
M339.986633,142.741409 
	C337.550018,112.649673 335.113434,82.557930 332.676819,52.466190 
	C333.142090,52.369774 333.607361,52.273357 334.072632,52.176941 
	C335.029755,53.663425 335.986908,55.149914 336.973663,56.682362 
	C341.240265,52.048149 330.972107,16.169413 324.939758,11.517633 
	C323.351318,15.014620 321.950409,18.527210 320.196014,21.853346 
	C317.966034,26.081131 317.872437,30.098291 319.208282,34.770813 
	C320.783447,40.280323 321.382172,46.116848 321.946930,51.856586 
	C322.889069,61.431873 323.460022,71.043526 324.201050,80.638794 
	C325.464935,97.004173 326.699066,113.372002 328.024963,129.732376 
	C328.796875,139.257156 329.845032,148.760391 330.549591,158.289536 
	C331.475220,170.808487 332.221588,183.341232 332.960876,195.873001 
	C333.139343,198.897705 332.987396,201.941864 332.987396,204.977081 
	C333.568604,205.117630 334.149811,205.258179 334.731018,205.398727 
	C335.496552,204.519577 336.731567,203.744568 336.953400,202.744781 
	C338.743042,194.678345 341.459473,186.606979 341.731628,178.464859 
	C342.118103,166.903809 340.663055,155.281204 339.986633,142.741409 
M224.541626,157.953049 
	C226.203354,157.344177 227.873734,156.757828 229.525421,156.122833 
	C241.416794,151.551331 253.285706,146.920670 265.200928,142.412308 
	C271.249603,140.123688 277.330170,137.896072 283.486206,135.920959 
	C289.994232,133.832901 292.468079,129.149124 292.760498,122.091553 
	C291.002411,122.286751 289.222443,122.157394 287.689575,122.711571 
	C281.285065,125.027016 274.982941,127.624390 268.591583,129.977982 
	C252.986420,135.724564 237.316467,141.298523 221.779572,147.222534 
	C220.000610,147.900833 218.653748,150.211792 217.554688,152.035782 
	C216.415939,153.925690 215.734589,156.115067 215.031860,158.232758 
	C214.726669,159.152359 214.868393,160.220245 214.807144,161.220795 
	C215.987625,161.210220 217.315277,161.543732 218.317001,161.115250 
	C220.225266,160.298996 221.947433,159.047653 224.541626,157.953049 
M458.147675,158.314346 
	C459.042480,158.410660 460.071136,158.844986 460.811707,158.551743 
	C469.531219,155.099167 478.170685,151.443329 486.903931,148.026855 
	C499.875763,142.952255 512.759155,137.579193 525.978455,133.242554 
	C531.842651,131.318787 535.446106,128.669357 536.115356,122.553032 
	C536.257019,121.258789 536.048462,119.926239 536.001282,118.611336 
	C534.823975,118.804718 533.579529,118.815491 532.479797,119.219818 
	C521.856140,123.125740 511.226349,127.018425 500.658630,131.072083 
	C488.774414,135.630737 476.921295,140.275497 465.139984,145.091553 
	C463.538788,145.746078 461.994781,147.388885 461.194550,148.965149 
	C459.828308,151.656311 459.072296,154.657257 458.147675,158.314346 
M602.523987,144.929306 
	C597.551208,147.350281 597.814758,152.624725 596.056580,156.797455 
	C597.248474,157.231079 598.688477,158.326340 599.590759,157.987885 
	C604.419678,156.176651 609.047424,153.831482 613.869141,151.998199 
	C624.692139,147.883194 635.630859,144.071320 646.436707,139.913162 
	C651.712097,137.883163 656.666443,133.842911 661.994446,133.388077 
	C671.099548,132.610779 672.169556,126.139618 675.452454,118.649063 
	C670.561218,119.707085 666.755798,120.067078 663.302979,121.365128 
	C653.476624,125.059250 643.818848,129.199127 634.047913,133.044373 
	C623.828247,137.066208 613.554016,140.949463 602.523987,144.929306 
M465.025513,227.500763 
	C465.029907,228.666092 464.713806,229.950027 465.093597,230.976471 
	C466.838837,235.693573 467.865051,241.061447 470.857758,244.844070 
	C475.605988,250.845490 484.790894,248.553986 489.353363,240.976135 
	C492.220276,236.214371 493.345825,231.167999 491.745941,225.603348 
	C490.265076,226.525375 489.700226,227.965088 488.649658,228.773941 
	C486.437469,230.477158 483.974091,233.007431 481.607330,233.014450 
	C479.473999,233.020813 476.626862,230.526993 475.375671,228.386871 
	C473.873627,225.817657 472.730713,222.292282 473.192413,219.468704 
	C474.331573,212.501633 476.288391,205.644302 478.266846,198.844788 
	C480.483398,191.226929 483.214172,183.758392 485.413971,176.136215 
	C485.868561,174.561157 484.971161,172.595901 484.696869,170.810501 
	C480.803986,178.331100 479.011627,186.113480 475.191315,192.723846 
	C469.048401,203.352966 467.294983,214.969788 465.025513,227.500763 
M137.157288,214.446014 
	C136.678864,216.033386 136.267532,217.644684 135.710953,219.204163 
	C132.486771,228.237976 131.699203,237.365067 135.375473,246.400040 
	C137.444931,251.486053 141.240891,254.747360 147.125198,254.951859 
	C152.641632,255.143585 155.986176,251.792740 157.781769,247.395111 
	C159.517212,243.144760 160.004791,238.384888 161.040497,233.848816 
	C160.566010,233.575684 160.091522,233.302551 159.617050,233.029419 
	C158.709900,233.839005 157.609695,234.513397 156.930923,235.482880 
	C154.676254,238.703262 151.392715,240.898911 147.875580,239.584961 
	C145.446701,238.677567 143.060318,235.657684 142.146622,233.057648 
	C139.068466,224.298218 143.129944,216.119202 145.330673,207.883621 
	C147.634262,199.263000 150.422363,190.772644 152.866211,182.187637 
	C153.140549,181.223907 152.554062,180.015137 152.366760,178.920013 
	C152.028000,178.932449 151.689255,178.944901 151.350494,178.957336 
	C146.675644,190.558746 142.000793,202.160156 137.157288,214.446014 
M615.087585,268.338348 
	C615.584167,268.775421 616.010254,269.427277 616.588074,269.617065 
	C623.850342,272.002502 628.072266,277.065338 630.042175,284.331329 
	C630.928528,287.600555 632.228210,290.757721 633.340393,293.965729 
	C633.825806,293.979706 634.311279,293.993683 634.796692,294.007660 
	C635.520325,292.693176 636.636597,291.452484 636.899780,290.051514 
	C638.061707,283.866760 639.068848,277.648865 639.955750,271.417847 
	C640.724854,266.014008 642.594543,264.345459 648.378540,264.390472 
	C651.213013,264.412537 654.025391,260.746521 652.370361,258.635590 
	C650.232971,255.909149 647.163086,253.913818 644.494690,251.603668 
	C642.679138,254.025406 640.194641,256.200775 639.192505,258.921997 
	C637.313477,264.024597 636.292175,269.443054 634.699951,275.552246 
	C633.277100,272.436951 632.317993,269.983917 631.072205,267.686310 
	C628.790344,263.477814 626.748474,259.019104 621.675415,257.269653 
	C617.072510,255.682297 612.919678,258.652161 613.229248,263.564880 
	C613.318604,264.982391 614.137634,266.353912 615.087585,268.338348 
M50.525902,139.324158 
	C52.331284,139.412994 55.218952,140.247849 55.758965,139.464462 
	C58.419098,135.605255 55.989220,132.280838 52.998196,130.177963 
	C51.305866,128.988159 46.925896,128.549469 46.293285,129.486008 
	C44.191921,132.596954 42.745232,136.382889 41.982758,140.101746 
	C41.176517,144.034088 41.441574,148.186066 41.238674,152.242111 
	C40.600586,152.278412 39.962494,152.314697 39.324406,152.350998 
	C38.628166,150.737991 37.971504,149.106461 37.227303,147.515900 
	C35.759769,144.379395 34.626808,140.992752 32.647457,138.213852 
	C30.348337,134.986023 27.170637,131.950806 22.729883,133.196548 
	C19.263180,134.169037 17.640909,137.106323 18.074987,140.908661 
	C18.544672,145.022888 21.647221,146.520721 24.945978,146.779434 
	C29.134129,147.107910 30.757044,149.657913 31.889465,152.932922 
	C33.850529,158.604401 35.651703,164.331161 37.519939,170.034744 
	C38.177750,170.164215 38.835560,170.293701 39.493370,170.423172 
	C40.619492,167.841217 42.273018,165.355331 42.764294,162.657761 
	C43.859303,156.645096 44.175507,150.492325 45.219780,144.467850 
	C45.651852,141.975250 45.910923,138.591446 50.525902,139.324158 
M44.963524,326.848572 
	C45.958584,321.666260 47.190918,316.511932 47.806850,311.284943 
	C47.996262,309.677551 46.665783,307.774597 45.730854,306.183502 
	C44.771214,304.550293 42.980797,303.299683 42.365700,301.589630 
	C40.605186,296.695160 39.256321,291.652618 37.317581,285.256165 
	C36.010517,287.632385 34.631100,289.262604 34.176266,291.119324 
	C32.237228,299.034851 31.891111,307.027985 34.323357,314.922546 
	C36.010384,320.398346 38.806641,325.083832 44.963524,326.848572 
z"/>
<path fill="#272727" opacity="1.000000" stroke="none" 
	d="
M444.654114,215.530182 
	C446.835663,232.424713 448.626038,248.932510 451.124969,265.332367 
	C451.951385,270.755829 454.135254,276.124695 456.521027,281.126160 
	C461.258301,291.057098 471.025452,290.992706 480.042267,291.615906 
	C483.585541,291.860779 487.326538,290.899628 490.787079,289.856201 
	C492.137238,289.449158 494.042419,287.141968 493.866394,285.976410 
	C491.309753,269.048401 499.533325,255.590988 508.164307,242.563400 
	C512.855530,235.482422 520.341003,231.287140 529.020081,230.344727 
	C531.940369,230.027649 533.065186,228.979828 534.368591,226.399246 
	C537.391174,220.414993 541.154053,214.804657 544.981262,208.436386 
	C536.902161,202.382690 528.777893,194.599945 516.170898,197.636169 
	C512.590027,198.498581 511.505615,196.775101 512.895386,193.464462 
	C514.754944,189.034805 516.440796,184.510422 518.653381,180.262207 
	C519.468445,178.697266 521.405029,177.126404 523.110291,176.712372 
	C533.075500,174.292740 543.030090,171.311447 553.168823,170.259079 
	C564.982849,169.032776 576.999084,169.567047 588.421448,173.816620 
	C593.334473,175.644455 598.174500,177.676849 603.001892,179.724136 
	C606.523560,181.217667 607.505249,183.894012 606.206909,187.463593 
	C604.961060,190.888824 604.005005,194.454926 602.390991,197.694794 
	C601.660400,199.161118 599.808228,200.435883 598.184448,201.025650 
	C591.608826,203.414017 584.924194,205.502335 578.279785,207.701355 
	C578.270935,208.412613 578.262085,209.123856 578.253296,209.835114 
	C581.291870,211.489883 584.191284,214.186050 587.393921,214.614120 
	C599.472412,216.228592 610.982971,214.959625 619.101929,204.222031 
	C621.886902,200.538803 624.244629,196.534866 626.862183,192.721817 
	C628.355896,190.545868 628.988647,187.234100 633.041138,188.275696 
	C633.680481,188.440048 634.869385,186.668777 635.731995,185.726440 
	C638.982788,182.175354 641.984436,178.363693 645.480347,175.075989 
	C653.449524,167.581451 665.906555,169.797882 670.922180,179.436523 
	C677.925598,192.895081 679.252075,206.427872 671.471252,220.127838 
	C669.702026,223.242874 668.124329,224.914307 663.740479,224.397293 
	C650.039917,222.781403 638.070679,217.425888 626.604980,209.343414 
	C624.753845,212.578690 622.609192,215.670837 621.115906,219.050812 
	C614.809509,233.325256 597.149292,237.296936 584.629395,234.048462 
	C578.434143,232.441010 572.846375,230.041046 568.408691,225.128021 
	C566.520142,223.037140 563.793030,221.684280 561.377930,220.101288 
	C560.738953,219.682449 559.575317,219.222565 559.107971,219.513367 
	C554.346008,222.476456 549.110962,225.007294 545.161804,228.845840 
	C541.945801,231.971680 545.632263,235.382523 548.092773,237.060928 
	C553.110840,240.484024 558.501221,243.561874 564.112305,245.874069 
	C576.563904,251.005066 579.822510,255.698853 580.059631,269.161804 
	C580.232971,278.997711 578.862061,288.226807 571.024292,294.965851 
	C563.602722,301.347107 554.684937,305.111267 545.104309,306.818939 
	C534.218506,308.759216 523.403076,308.091125 512.405457,306.247925 
	C506.947815,305.333160 500.831848,307.806976 495.106445,309.144714 
	C484.318451,311.665466 473.585632,313.404022 462.661133,309.928558 
	C456.874969,308.087738 452.775330,304.709106 449.389618,299.419708 
	C443.250885,289.829437 442.460144,278.710052 439.021210,268.370636 
	C438.612854,267.143005 438.293060,265.885956 437.522552,263.230988 
	C436.321808,267.779572 436.031372,271.261993 434.535675,274.111816 
	C429.457886,283.786743 422.577209,292.045563 413.964752,298.889618 
	C407.416229,304.093536 401.452911,310.079071 394.664459,314.925873 
	C382.945618,323.292908 370.977936,331.108948 355.896149,332.692474 
	C341.776215,334.175018 333.679718,328.495209 331.956635,314.293518 
	C331.217499,308.201385 330.303925,302.088715 330.215179,295.974548 
	C330.159607,292.143799 331.419342,288.277740 332.217194,284.454254 
	C333.843842,276.658966 335.128815,268.756226 337.362274,261.134430 
	C339.365448,254.298355 342.451324,247.779526 345.059540,241.120728 
	C345.759216,241.203796 346.458893,241.286865 347.158569,241.369934 
	C347.158569,243.544037 347.580658,245.819153 347.088593,247.875534 
	C344.346252,259.335968 340.973175,270.661713 338.670349,282.204041 
	C337.551147,287.813873 337.600311,293.884155 338.336975,299.588867 
	C339.802948,310.941345 350.353943,316.787018 361.298065,312.159515 
	C377.393066,305.354095 392.746613,297.187042 405.586395,284.938721 
	C413.007751,277.859222 421.149750,271.492462 428.185120,264.064026 
	C434.289886,257.618164 436.377045,249.802933 433.623322,240.577637 
	C431.268402,232.688492 430.952423,224.210312 428.904114,216.205170 
	C426.288879,205.984436 423.014130,195.919296 419.695343,185.895798 
	C416.905640,177.470139 413.954956,169.232193 418.096313,160.360321 
	C419.289612,157.804031 419.747650,154.904541 420.960541,150.721848 
	C433.778870,171.569382 439.838989,193.083817 444.654114,215.530182 
M548.743530,260.716766 
	C546.495789,259.735535 544.248108,258.754303 542.192688,257.857025 
	C538.443237,267.801941 534.725586,277.662567 530.955322,287.662750 
	C531.433594,287.718109 532.547729,287.771820 533.630798,287.984192 
	C543.520691,289.923431 551.958069,284.552887 561.001953,282.372192 
	C564.472412,281.535370 567.537048,279.015198 570.786621,277.262054 
	C568.121887,274.336212 565.834412,270.890961 562.698853,268.613434 
	C558.599915,265.636230 553.830261,263.582611 548.743530,260.716766 
M525.061646,250.562881 
	C524.914124,250.327606 524.796631,250.062119 524.604797,249.871429 
	C524.523865,249.790939 524.264038,249.817780 524.123169,249.880554 
	C515.549011,253.702667 509.268829,260.147888 504.101501,267.748199 
	C503.242676,269.011414 503.057587,270.929077 503.055725,272.544861 
	C503.047302,279.838165 509.946228,284.325195 515.992920,280.853485 
	C519.034912,279.106903 521.927368,276.950287 524.497681,274.559967 
	C532.241943,267.358276 531.486755,255.430481 525.061646,250.562881 
M646.292664,198.411530 
	C651.724487,199.586304 656.031067,205.162643 663.320068,202.894531 
	C660.126099,198.041550 660.077393,191.665619 653.937805,190.229416 
	C649.285767,189.141205 644.967407,190.789200 641.511597,194.971893 
	C643.103088,196.117233 644.406128,197.054932 646.292664,198.411530 
M573.843262,191.581299 
	C567.392883,189.255920 560.869873,189.888870 553.133240,190.392899 
	C556.678345,193.065582 559.024292,195.065582 561.618408,196.662613 
	C562.508606,197.210632 564.186462,197.131470 565.214722,196.679565 
	C568.211182,195.362747 571.061279,193.712769 573.843262,191.581299 
z"/>
<path fill="#272727" opacity="1.000000" stroke="none" 
	d="
M390.101166,214.005173 
	C389.263885,217.044357 388.357758,220.066559 387.602570,223.126007 
	C385.516266,231.578522 380.095123,234.124130 371.746460,233.170181 
	C367.962067,232.737793 363.973694,234.495499 360.042450,234.794250 
	C357.635498,234.977173 355.058807,233.675522 352.734314,234.072037 
	C338.813232,236.446655 326.148132,242.058594 313.631195,248.557968 
	C303.144012,254.003418 291.732086,257.659302 280.776245,262.219635 
	C279.045074,262.940216 277.560608,264.253479 275.962067,265.292694 
	C277.364227,266.808594 278.543457,268.669800 280.223938,269.754578 
	C282.412201,271.167175 284.947479,272.104858 287.424225,272.993927 
	C291.681610,274.522217 291.298767,277.480865 289.845703,280.630157 
	C288.405487,283.751770 286.532715,286.674500 285.105377,289.801208 
	C283.638763,293.014191 281.607300,293.522888 278.750427,291.724213 
	C278.186340,291.369080 277.634521,290.992340 277.055634,290.663177 
	C273.206360,288.474487 267.578766,287.131378 266.037048,283.860168 
	C264.710876,281.046387 268.182678,276.071960 269.245361,271.978241 
	C269.629272,270.499268 269.550629,268.628571 268.924652,267.291809 
	C268.671906,266.752075 266.300446,266.844849 265.043304,267.192505 
	C255.681610,269.781433 246.357590,272.506683 236.423050,275.361206 
	C238.095490,277.111176 239.671432,278.924622 241.415817,280.558167 
	C250.979340,289.514038 249.393356,310.612061 243.085419,318.133789 
	C236.785355,325.646149 226.314072,325.253082 217.669510,321.639984 
	C203.966324,315.912567 196.092438,305.017700 192.558746,290.745941 
	C192.033966,288.626434 192.285156,286.128693 188.679062,285.300903 
	C186.971512,284.908905 186.100555,280.872406 184.630554,278.067291 
	C173.357300,282.249115 161.296051,287.285736 151.689529,296.024719 
	C140.788452,305.941345 131.364441,317.473541 120.552406,327.498993 
	C112.944550,334.553375 104.608276,341.166199 95.641151,346.309174 
	C87.469795,350.995697 79.396400,346.401123 72.814705,341.140167 
	C62.931019,333.239746 60.583477,322.243774 60.784023,309.990204 
	C61.026505,295.174713 66.894577,282.410004 73.396919,269.708679 
	C73.699249,269.118134 73.924995,268.337952 74.423836,268.027313 
	C75.804199,267.167633 77.310371,266.510010 78.766808,265.772491 
	C78.792343,267.294220 79.258400,268.980225 78.763229,270.307739 
	C77.081375,274.816650 75.257225,279.296265 73.128563,283.609985 
	C68.180382,293.637390 66.894127,304.159668 67.905106,315.184845 
	C68.557861,322.303436 72.642242,327.203613 78.626007,329.426697 
	C83.925591,331.395599 89.989281,330.125031 94.764992,326.552307 
	C102.686272,320.626434 110.628899,314.669189 118.015121,308.108826 
	C123.052177,303.634979 127.223694,298.169342 131.665939,293.046326 
	C144.621140,278.105804 160.914917,268.083038 179.014160,260.684418 
	C179.472626,260.497009 179.880585,260.095337 180.345840,260.028473 
	C192.206161,258.324280 192.490631,248.489578 194.868134,239.854767 
	C197.357025,230.815262 200.347137,221.904434 203.386139,213.029129 
	C205.317825,207.387634 207.723068,201.907425 209.949234,196.368271 
	C210.528152,194.927750 211.231796,193.537354 211.969131,191.925003 
	C219.078293,198.836258 222.133072,241.420532 217.047226,258.335754 
	C217.786285,258.518219 218.576508,258.984375 219.221237,258.832550 
	C232.778992,255.640594 246.468002,252.885498 259.824554,248.992477 
	C274.005219,244.859238 287.879669,239.668945 301.857697,234.852844 
	C304.492767,233.944931 307.123169,232.848404 309.481384,231.394073 
	C310.488831,230.772781 310.792603,229.010513 311.772461,227.055923 
	C287.054565,223.874359 263.435425,220.834213 239.629517,217.770035 
	C240.838852,213.123352 241.664551,208.707733 243.166351,204.535461 
	C244.621674,200.492279 247.101669,198.130264 252.255096,197.632858 
	C261.490021,196.741516 270.566437,194.274307 279.735657,192.612167 
	C285.448669,191.576523 291.188080,190.582489 296.959412,190.015274 
	C299.970551,189.719330 301.152832,188.576645 300.998352,185.695969 
	C300.234100,171.443832 299.637115,157.180679 298.679779,142.941666 
	C298.057556,133.686752 296.777832,124.477776 296.043732,115.228287 
	C294.837067,100.024925 293.807526,84.807243 292.755157,69.592003 
	C292.114929,60.335545 291.707642,51.060524 290.902069,41.819439 
	C290.663116,39.078129 290.009735,36.027218 288.510529,33.822414 
	C286.254486,30.504545 286.892456,27.589582 288.186768,24.449717 
	C289.984222,20.089312 291.866425,15.763847 294.700226,11.377166 
	C301.396271,25.407495 305.643250,40.000244 310.609406,55.762196 
	C307.931641,54.779991 306.703735,54.437881 305.579742,53.884670 
	C304.595398,53.400200 303.727753,52.678589 303.264374,52.367622 
	C303.264374,59.283596 302.925476,66.209663 303.346161,73.089294 
	C303.933380,82.693367 305.123962,92.259499 305.992126,101.847687 
	C307.651642,120.175819 309.630341,138.485306 310.776520,156.846222 
	C311.603577,170.094147 312.129944,183.501587 308.082642,196.442795 
	C307.077271,199.657501 304.937805,202.517487 302.928680,206.270905 
	C322.202515,208.601700 340.734253,210.842743 360.046875,213.349899 
	C370.585541,213.745728 380.343353,213.875458 390.101166,214.005173 
M210.092697,224.780441 
	C209.705627,223.877090 209.318558,222.973755 208.700333,221.530945 
	C202.379761,231.096436 200.839478,241.096497 199.815201,252.483398 
	C204.053650,249.678146 207.456024,247.802948 210.368134,245.346527 
	C211.922150,244.035675 213.715897,241.591660 213.512482,239.884109 
	C212.933563,235.024582 211.384705,230.280594 210.092697,224.780441 
M215.284103,295.226044 
	C222.384857,303.138153 231.508545,306.704254 237.154999,303.774506 
	C232.402054,294.388611 217.279144,284.751801 209.595505,286.892487 
	C211.476273,289.586853 213.219559,292.084290 215.284103,295.226044 
z"/>
<path fill="#282728" opacity="1.000000" stroke="none" 
	d="
M24.144238,265.148834 
	C20.785135,265.302887 19.489044,264.185211 20.920319,260.672943 
	C22.536085,256.707977 23.661594,252.544220 25.250845,248.567032 
	C26.176847,246.249680 27.593670,244.128433 29.174456,241.208084 
	C29.513893,241.563995 29.094131,240.759125 28.456951,240.509735 
	C16.327633,235.762421 16.259510,229.847382 18.694820,218.750626 
	C22.204130,202.760071 33.107742,191.373459 48.354225,185.684509 
	C57.256729,182.362701 64.139244,186.584290 63.749691,198.128174 
	C63.592144,202.796982 61.799961,207.566147 59.960964,211.958618 
	C59.007549,214.235840 56.554523,214.777542 54.658508,211.806976 
	C49.566063,203.828430 44.120174,203.037857 36.775318,209.031860 
	C36.270168,209.444107 35.955452,210.081055 35.490421,210.552612 
	C33.542820,212.527588 31.571653,214.479309 29.609119,216.439575 
	C32.962383,218.655151 36.225708,221.027618 39.705532,223.022446 
	C41.542641,224.075592 43.886486,224.222900 45.776180,225.210449 
	C50.833351,227.853256 55.717232,227.284439 60.611641,224.919067 
	C66.664909,221.993637 72.662071,218.944748 78.791473,216.189453 
	C80.309776,215.506958 82.244789,215.751495 83.988251,215.569885 
	C84.017883,217.261902 84.362976,219.019958 84.024834,220.634949 
	C82.142097,229.626831 76.646500,234.875244 68.147690,238.764816 
	C54.413288,245.050476 41.344814,252.804565 28.097868,260.124512 
	C26.497869,261.008636 25.534683,263.045166 24.168602,264.841309 
	C24.060850,265.134979 24.144238,265.148834 24.144238,265.148834 
z"/>
<path fill="#272727" opacity="1.000000" stroke="none" 
	d="
M107.941055,291.384125 
	C107.279396,293.040253 106.661156,294.353271 105.778702,296.227478 
	C101.822342,293.725739 102.282623,289.970581 102.146355,286.612366 
	C101.967308,282.199768 102.291344,277.764618 102.062462,273.356628 
	C101.430115,261.178314 100.774361,248.997391 99.834320,236.840195 
	C99.145599,227.933273 98.004715,219.060959 97.042709,210.175659 
	C96.401421,204.252518 95.548126,198.346863 95.094574,192.410095 
	C94.273148,181.658066 93.615898,170.892227 93.011658,160.125320 
	C92.565704,152.179016 92.567741,144.199158 91.861565,136.279587 
	C91.531219,132.574951 89.589455,129.027695 89.134377,125.316383 
	C88.735207,122.060982 88.909645,118.556137 89.698891,115.376999 
	C90.822212,110.852226 92.739769,106.524628 94.318016,102.112793 
	C94.919258,102.081421 95.520493,102.050041 96.121735,102.018669 
	C97.751328,105.687592 99.621895,109.271034 100.959930,113.043373 
	C103.678627,120.708237 106.118378,128.472290 108.651077,136.202667 
	C109.115410,137.619904 109.873627,139.095444 109.788300,140.501099 
	C109.667351,142.493546 108.889244,144.446121 108.391975,146.415726 
	C107.095184,145.385178 105.814781,144.332825 104.491028,143.338150 
	C104.121414,143.060425 103.623802,142.953018 102.244026,142.369751 
	C102.591621,147.518433 102.805710,152.176422 103.240517,156.813721 
	C104.089615,165.869568 105.154114,174.905640 105.962807,183.964767 
	C107.319183,199.159027 109.155060,214.344376 109.668533,229.571259 
	C110.282822,247.788162 109.777550,266.045349 109.593628,284.283447 
	C109.570854,286.541168 108.545334,288.788757 107.941055,291.384125 
z"/>
<path fill="#272727" opacity="1.000000" stroke="none" 
	d="
M339.990753,143.213150 
	C340.663055,155.281204 342.118103,166.903809 341.731628,178.464859 
	C341.459473,186.606979 338.743042,194.678345 336.953400,202.744781 
	C336.731567,203.744568 335.496552,204.519577 334.731018,205.398727 
	C334.149811,205.258179 333.568604,205.117630 332.987396,204.977081 
	C332.987396,201.941864 333.139343,198.897705 332.960876,195.873001 
	C332.221588,183.341232 331.475220,170.808487 330.549591,158.289536 
	C329.845032,148.760391 328.796875,139.257156 328.024963,129.732376 
	C326.699066,113.372002 325.464935,97.004173 324.201050,80.638794 
	C323.460022,71.043526 322.889069,61.431873 321.946930,51.856586 
	C321.382172,46.116848 320.783447,40.280323 319.208282,34.770813 
	C317.872437,30.098291 317.966034,26.081131 320.196014,21.853346 
	C321.950409,18.527210 323.351318,15.014620 324.939758,11.517633 
	C330.972107,16.169413 341.240265,52.048149 336.973663,56.682362 
	C335.986908,55.149914 335.029755,53.663425 334.072632,52.176941 
	C333.607361,52.273357 333.142090,52.369774 332.676819,52.466190 
	C335.113434,82.557930 337.550018,112.649673 339.990753,143.213150 
z"/>
<path fill="#F54A43" opacity="1.000000" stroke="none" 
	d="
M224.144241,157.964996 
	C221.947433,159.047653 220.225266,160.298996 218.317001,161.115250 
	C217.315277,161.543732 215.987625,161.210220 214.807144,161.220795 
	C214.868393,160.220245 214.726669,159.152359 215.031860,158.232758 
	C215.734589,156.115067 216.415939,153.925690 217.554688,152.035782 
	C218.653748,150.211792 220.000610,147.900833 221.779572,147.222534 
	C237.316467,141.298523 252.986420,135.724564 268.591583,129.977982 
	C274.982941,127.624390 281.285065,125.027016 287.689575,122.711571 
	C289.222443,122.157394 291.002411,122.286751 292.760498,122.091553 
	C292.468079,129.149124 289.994232,133.832901 283.486206,135.920959 
	C277.330170,137.896072 271.249603,140.123688 265.200928,142.412308 
	C253.285706,146.920670 241.416794,151.551331 229.525421,156.122833 
	C227.873734,156.757828 226.203354,157.344177 224.144241,157.964996 
z"/>
<path fill="#F54943" opacity="1.000000" stroke="none" 
	d="
M458.103821,157.921219 
	C459.072296,154.657257 459.828308,151.656311 461.194550,148.965149 
	C461.994781,147.388885 463.538788,145.746078 465.139984,145.091553 
	C476.921295,140.275497 488.774414,135.630737 500.658630,131.072083 
	C511.226349,127.018425 521.856140,123.125740 532.479797,119.219818 
	C533.579529,118.815491 534.823975,118.804718 536.001221,118.611336 
	C536.048462,119.926239 536.257019,121.258789 536.115356,122.553032 
	C535.446106,128.669357 531.842651,131.318787 525.978455,133.242554 
	C512.759155,137.579193 499.875763,142.952255 486.903931,148.026855 
	C478.170685,151.443329 469.531219,155.099167 460.811707,158.551743 
	C460.071136,158.844986 459.042480,158.410660 458.103821,157.921219 
z"/>
<path fill="#F54943" opacity="1.000000" stroke="none" 
	d="
M602.913818,144.911301 
	C613.554016,140.949463 623.828247,137.066208 634.047913,133.044373 
	C643.818848,129.199127 653.476624,125.059250 663.302979,121.365128 
	C666.755798,120.067078 670.561218,119.707085 675.452454,118.649063 
	C672.169556,126.139618 671.099548,132.610779 661.994446,133.388077 
	C656.666443,133.842911 651.712097,137.883163 646.436707,139.913162 
	C635.630859,144.071320 624.692139,147.883194 613.869141,151.998199 
	C609.047424,153.831482 604.419678,156.176651 599.590759,157.987885 
	C598.688477,158.326340 597.248474,157.231079 596.056580,156.797455 
	C597.814758,152.624725 597.551208,147.350281 602.913818,144.911301 
z"/>
<path fill="#272727" opacity="1.000000" stroke="none" 
	d="
M465.024597,227.040573 
	C467.294983,214.969788 469.048401,203.352966 475.191315,192.723846 
	C479.011627,186.113480 480.803986,178.331100 484.696869,170.810501 
	C484.971161,172.595901 485.868561,174.561157 485.413971,176.136215 
	C483.214172,183.758392 480.483398,191.226929 478.266846,198.844788 
	C476.288391,205.644302 474.331573,212.501633 473.192413,219.468704 
	C472.730713,222.292282 473.873627,225.817657 475.375671,228.386871 
	C476.626862,230.526993 479.473999,233.020813 481.607330,233.014450 
	C483.974091,233.007431 486.437469,230.477158 488.649658,228.773941 
	C489.700226,227.965088 490.265076,226.525375 491.745941,225.603348 
	C493.345825,231.167999 492.220276,236.214371 489.353363,240.976135 
	C484.790894,248.553986 475.605988,250.845490 470.857758,244.844070 
	C467.865051,241.061447 466.838837,235.693573 465.093597,230.976471 
	C464.713806,229.950027 465.029907,228.666092 465.024597,227.040573 
z"/>
<path fill="#282728" opacity="1.000000" stroke="none" 
	d="
M137.241608,214.103790 
	C142.000793,202.160156 146.675644,190.558746 151.350494,178.957336 
	C151.689255,178.944901 152.028000,178.932449 152.366760,178.920013 
	C152.554062,180.015137 153.140549,181.223907 152.866211,182.187637 
	C150.422363,190.772644 147.634262,199.263000 145.330673,207.883621 
	C143.129944,216.119202 139.068466,224.298218 142.146622,233.057648 
	C143.060318,235.657684 145.446701,238.677567 147.875580,239.584961 
	C151.392715,240.898911 154.676254,238.703262 156.930923,235.482880 
	C157.609695,234.513397 158.709900,233.839005 159.617050,233.029419 
	C160.091522,233.302551 160.566010,233.575684 161.040497,233.848816 
	C160.004791,238.384888 159.517212,243.144760 157.781769,247.395111 
	C155.986176,251.792740 152.641632,255.143585 147.125198,254.951859 
	C141.240891,254.747360 137.444931,251.486053 135.375473,246.400040 
	C131.699203,237.365067 132.486771,228.237976 135.710953,219.204163 
	C136.267532,217.644684 136.678864,216.033386 137.241608,214.103790 
z"/>
<path fill="#F14B45" opacity="1.000000" stroke="none" 
	d="
M24.074024,265.175232 
	C26.987860,263.811401 29.963404,262.542236 32.776546,260.980530 
	C46.940865,253.117294 61.060558,245.173660 75.205193,237.274872 
	C76.056595,236.799408 76.956802,236.257523 77.889900,236.117722 
	C79.342804,235.900070 80.843422,236.001007 82.323822,235.966919 
	C82.051575,237.284424 81.859192,238.624527 81.493652,239.915619 
	C79.623734,246.520020 74.569237,249.894958 68.802971,252.762527 
	C60.946205,256.669708 53.205006,260.816833 45.499168,265.016876 
	C41.233906,267.341644 37.207172,270.102692 32.952057,272.447784 
	C29.172783,274.530609 25.267498,276.401855 21.328327,278.166718 
	C20.205118,278.669983 18.769741,278.476501 16.156929,278.731293 
	C19.454182,273.812317 18.040043,267.907776 23.965298,265.456238 
	C24.144238,265.148834 24.060850,265.134979 24.074024,265.175232 
z"/>
<path fill="#FB423C" opacity="1.000000" stroke="none" 
	d="
M583.174194,119.013374 
	C583.174194,119.013374 583.607117,119.032814 584.134766,119.260117 
	C585.853943,119.667397 587.045471,119.847366 588.236938,120.027328 
	C588.612000,120.039314 588.987061,120.051308 589.892944,120.294159 
	C590.998291,120.686310 591.572754,120.847580 592.147217,121.008858 
	C592.147217,121.008858 592.549011,121.045807 592.914795,121.277039 
	C593.529419,121.708015 593.799683,121.872429 594.091431,122.001495 
	C594.091431,122.001495 594.016907,121.992180 593.986572,122.336517 
	C592.985596,125.806862 592.014954,128.932877 591.044312,132.058899 
	C591.044312,132.058899 591.008118,132.005234 590.700195,132.091293 
	C589.677673,132.822372 588.708496,133.333344 588.287537,134.132935 
	C583.709839,142.828827 576.783508,147.287552 566.734009,147.194534 
	C563.865051,147.167969 560.979919,148.899796 558.102173,149.825317 
	C556.818848,149.466461 555.535522,149.107620 554.252197,148.748779 
	C554.168030,148.350266 554.083862,147.951752 553.999695,147.553238 
	C562.447205,143.711716 570.894714,139.870178 579.342224,136.028656 
	C579.198792,135.539673 579.055359,135.050690 578.911926,134.561707 
	C571.545715,132.393616 564.154358,134.171555 556.382935,134.537445 
	C556.317749,132.362778 556.638733,130.631531 556.959717,128.900299 
	C556.959717,128.900299 556.961243,128.972717 557.250793,128.851501 
	C558.705200,126.741211 559.870117,124.752136 561.035034,122.763062 
	C561.035034,122.763062 561.033020,122.453949 561.403259,122.114662 
	C568.424805,117.117897 576.018616,119.763397 583.174194,119.013374 
z"/>
<path fill="#F54943" opacity="1.000000" stroke="none" 
	d="
M170.145752,144.007553 
	C167.037643,145.659348 164.054718,147.630127 160.799698,148.907608 
	C146.824753,154.392273 132.770081,159.673920 118.743729,165.027557 
	C115.176811,166.388992 111.607109,167.743134 107.254196,169.399078 
	C107.108139,169.047165 105.932968,167.629089 106.248482,166.740021 
	C107.930634,161.999893 108.534660,156.819351 114.894226,154.863251 
	C123.622559,152.178543 131.952927,148.223526 140.535263,145.031830 
	C145.653992,143.128220 150.928635,141.643875 156.681503,140.233582 
	C159.720825,144.007111 162.497360,146.583160 167.223480,144.113571 
	C168.003143,143.706161 169.162094,144.024567 170.145752,144.007553 
M158.154846,147.421143 
	C158.453705,147.242004 158.752563,147.062881 159.051422,146.883743 
	C158.965042,146.773560 158.816116,146.559723 158.801514,146.568527 
	C158.504684,146.747650 158.223221,146.952240 158.154846,147.421143 
z"/>
<path fill="#282828" opacity="1.000000" stroke="none" 
	d="
M614.854858,268.042419 
	C614.137634,266.353912 613.318604,264.982391 613.229248,263.564880 
	C612.919678,258.652161 617.072510,255.682297 621.675415,257.269653 
	C626.748474,259.019104 628.790344,263.477814 631.072205,267.686310 
	C632.317993,269.983917 633.277100,272.436951 634.699951,275.552246 
	C636.292175,269.443054 637.313477,264.024597 639.192505,258.921997 
	C640.194641,256.200775 642.679138,254.025406 644.494690,251.603668 
	C647.163086,253.913818 650.232971,255.909149 652.370361,258.635590 
	C654.025391,260.746521 651.213013,264.412537 648.378540,264.390472 
	C642.594543,264.345459 640.724854,266.014008 639.955750,271.417847 
	C639.068848,277.648865 638.061707,283.866760 636.899780,290.051514 
	C636.636597,291.452484 635.520325,292.693176 634.796692,294.007660 
	C634.311279,293.993683 633.825806,293.979706 633.340393,293.965729 
	C632.228210,290.757721 630.928528,287.600555 630.042175,284.331329 
	C628.072266,277.065338 623.850342,272.002502 616.588074,269.617065 
	C616.010254,269.427277 615.584167,268.775421 614.854858,268.042419 
z"/>
<path fill="#2B2B2B" opacity="1.000000" stroke="none" 
	d="
M50.259556,139.108368 
	C45.910923,138.591446 45.651852,141.975250 45.219780,144.467850 
	C44.175507,150.492325 43.859303,156.645096 42.764294,162.657761 
	C42.273018,165.355331 40.619492,167.841217 39.493370,170.423172 
	C38.835560,170.293701 38.177750,170.164215 37.519939,170.034744 
	C35.651703,164.331161 33.850529,158.604401 31.889465,152.932922 
	C30.757044,149.657913 29.134129,147.107910 24.945978,146.779434 
	C21.647221,146.520721 18.544672,145.022888 18.074987,140.908661 
	C17.640909,137.106323 19.263180,134.169037 22.729883,133.196548 
	C27.170637,131.950806 30.348337,134.986023 32.647457,138.213852 
	C34.626808,140.992752 35.759769,144.379395 37.227303,147.515900 
	C37.971504,149.106461 38.628166,150.737991 39.324406,152.350998 
	C39.962494,152.314697 40.600586,152.278412 41.238674,152.242111 
	C41.441574,148.186066 41.176517,144.034088 41.982758,140.101746 
	C42.745232,136.382889 44.191921,132.596954 46.293285,129.486008 
	C46.925896,128.549469 51.305866,128.988159 52.998196,130.177963 
	C55.989220,132.280838 58.419098,135.605255 55.758965,139.464462 
	C55.218952,140.247849 52.331284,139.412994 50.259556,139.108368 
z"/>
<path fill="#ED5450" opacity="1.000000" stroke="none" 
	d="
M417.067719,136.931320 
	C422.502533,139.280563 422.282837,142.221451 416.252167,147.847183 
	C411.222870,145.755432 408.862610,147.375732 403.278534,154.027069 
	C399.321960,158.739868 394.648743,163.092361 389.589447,166.582199 
	C381.735687,171.999619 373.383545,176.730408 365.031860,181.372986 
	C361.539490,183.314362 357.506989,184.284103 353.153595,184.644836 
	C371.653564,171.346359 390.656158,159.017319 406.228546,142.294785 
	C395.589691,133.656937 394.348328,128.933807 401.273499,122.716248 
	C401.826904,122.799652 401.941833,122.928223 401.994446,123.422836 
	C399.187317,131.443726 399.678375,133.375565 405.688110,138.879089 
	C406.407593,139.537949 407.243286,140.227676 407.614960,141.081635 
	C409.374298,145.123520 413.156372,144.937836 415.993622,144.001144 
	C419.525940,142.835037 417.542603,139.643280 416.874908,137.136627 
	C416.939117,137.068146 417.067719,136.931320 417.067719,136.931320 
z"/>
<path fill="#282828" opacity="1.000000" stroke="none" 
	d="
M44.721565,327.104462 
	C38.806641,325.083832 36.010384,320.398346 34.323357,314.922546 
	C31.891111,307.027985 32.237228,299.034851 34.176266,291.119324 
	C34.631100,289.262604 36.010517,287.632385 37.317581,285.256165 
	C39.256321,291.652618 40.605186,296.695160 42.365700,301.589630 
	C42.980797,303.299683 44.771214,304.550293 45.730854,306.183502 
	C46.665783,307.774597 47.996262,309.677551 47.806850,311.284943 
	C47.190918,316.511932 45.958584,321.666260 44.721565,327.104462 
z"/>
<path fill="#F64741" opacity="1.000000" stroke="none" 
	d="
M222.071747,136.071152 
	C219.258759,142.552917 214.966980,148.091522 208.188919,150.078613 
	C201.069092,152.165878 193.519867,152.847397 186.118393,153.848022 
	C185.073303,153.989304 183.802048,152.457458 182.199432,151.416931 
	C190.966492,148.025131 198.809921,145.113953 206.528885,141.903458 
	C208.131226,141.236984 209.271790,139.460220 210.466400,137.730927 
	C213.464462,134.078537 218.689743,133.286957 219.983078,127.754631 
	C220.599289,125.118797 224.218018,125.896217 226.068619,129.015335 
	C226.068619,129.015335 226.072784,129.061630 225.709686,129.152145 
	C224.254959,131.518829 223.163361,133.794998 222.071747,136.071152 
z"/>
<path fill="#F54943" opacity="1.000000" stroke="none" 
	d="
M226.398132,128.830597 
	C224.218018,125.896217 220.599289,125.118797 219.983078,127.754631 
	C218.689743,133.286957 213.464462,134.078537 210.152054,137.552582 
	C202.810394,138.214951 195.626450,138.647110 188.436493,138.923935 
	C186.876999,138.984009 185.296051,138.486542 183.340546,137.764465 
	C182.917160,136.900833 182.878189,136.518585 182.884338,136.098862 
	C182.929459,136.061386 183.020111,135.986954 183.020111,135.986954 
	C183.627136,135.877869 184.548080,135.984329 184.793472,135.626938 
	C187.850159,131.175308 190.808731,126.656326 193.882568,122.018753 
	C197.839798,122.018753 201.947342,122.018753 206.155045,122.253815 
	C196.383179,121.976730 191.465317,128.034317 187.090393,137.423767 
	C190.586487,136.132736 192.782104,135.239746 195.033035,134.519669 
	C196.527756,134.041519 198.895432,133.004211 199.505936,133.605209 
	C202.547012,136.598969 204.628967,134.684387 207.178635,132.994125 
	C209.445786,131.491165 212.061707,130.514313 215.066254,129.038834 
	C212.184052,126.610992 207.010406,127.266090 208.993179,122.171440 
	C214.271469,122.914925 219.587830,123.477898 224.791458,124.575356 
	C225.683350,124.763458 226.094437,127.231216 226.398132,128.830597 
z"/>
<path fill="#F64741" opacity="1.000000" stroke="none" 
	d="
M208.659286,122.101334 
	C207.010406,127.266090 212.184052,126.610992 215.066254,129.038834 
	C212.061707,130.514313 209.445786,131.491165 207.178635,132.994125 
	C204.628967,134.684387 202.547012,136.598969 199.505936,133.605209 
	C198.895432,133.004211 196.527756,134.041519 195.033035,134.519669 
	C192.782104,135.239746 190.586487,136.132736 187.090393,137.423767 
	C191.465317,128.034317 196.383179,121.976730 206.613983,122.323463 
	C207.423645,122.115784 207.874527,122.073509 208.659286,122.101334 
z"/>
<path fill="#ED5450" opacity="1.000000" stroke="none" 
	d="
M405.946655,118.944382 
	C408.355682,117.975655 410.878876,116.050926 413.139923,116.321007 
	C415.188690,116.565727 418.236267,118.973251 418.569641,120.834442 
	C419.236115,124.555511 418.414337,128.561493 418.060577,132.436432 
	C417.945679,133.695175 417.374329,134.912262 417.039734,136.539856 
	C417.067719,136.931320 416.939117,137.068146 416.535217,137.047607 
	C412.678436,134.832413 409.043304,132.870804 405.835297,130.362839 
	C403.618225,128.629562 403.985016,126.368423 406.264435,124.501221 
	C408.541809,122.635643 410.720032,122.857986 412.121521,125.220764 
	C413.451294,127.462685 414.112244,130.101303 415.619934,133.991425 
	C416.408630,129.825043 417.843964,126.736320 417.330109,124.015762 
	C416.280792,118.460533 413.517761,117.550911 406.076172,119.087425 
	C406.033051,119.039719 405.946655,118.944389 405.946655,118.944382 
z"/>
<path fill="#F54943" opacity="1.000000" stroke="none" 
	d="
M157.955185,138.899933 
	C161.957764,137.258743 165.987198,135.679413 169.953995,133.955933 
	C172.885849,132.682129 175.706421,131.152756 178.634735,129.870056 
	C180.186661,129.190262 181.862610,128.793594 183.482544,128.269119 
	C183.648712,129.846909 183.916977,131.423431 183.936523,133.003036 
	C183.945847,133.755951 183.482162,134.514709 183.126404,135.628891 
	C183.020111,135.986954 182.929459,136.061386 182.554947,135.992218 
	C180.463089,136.113190 178.625488,135.974701 177.049606,136.551407 
	C170.843323,138.822662 164.884201,142.625595 157.955185,138.899933 
z"/>
<path fill="#F64741" opacity="1.000000" stroke="none" 
	d="
M157.717484,138.977936 
	C164.884201,142.625595 170.843323,138.822662 177.049606,136.551407 
	C178.625488,135.974701 180.463089,136.113190 182.509827,136.029694 
	C182.878189,136.518585 182.917160,136.900833 182.973221,137.571060 
	C182.373093,138.046280 181.755875,138.233505 180.613983,138.716705 
	C178.060837,140.286072 176.032379,141.559448 174.003922,142.832825 
	C172.928879,143.131027 171.853851,143.429214 170.462280,143.867477 
	C169.162094,144.024567 168.003143,143.706161 167.223480,144.113571 
	C162.497360,146.583160 159.720825,144.007111 157.092255,140.184082 
	C157.129715,139.600006 157.304749,139.327988 157.717484,138.977936 
z"/>
<path fill="#E65D5B" opacity="1.000000" stroke="none" 
	d="
M558.522461,149.894836 
	C560.979919,148.899796 563.865051,147.167969 566.734009,147.194534 
	C576.783508,147.287552 583.709839,142.828827 588.287537,134.132935 
	C588.708496,133.333344 589.677673,132.822372 590.729797,132.104446 
	C586.662842,143.985428 579.883972,148.466522 568.197327,149.017853 
	C565.104492,149.163742 562.027161,149.639862 558.522461,149.894836 
z"/>
<path fill="#636363" opacity="1.000000" stroke="none" 
	d="
M389.827209,213.668213 
	C380.343353,213.875458 370.585541,213.745728 360.507019,213.373413 
	C369.975250,213.197617 379.764252,213.264435 389.827209,213.668213 
z"/>
<path fill="#E65D5B" opacity="1.000000" stroke="none" 
	d="
M582.920105,118.647308 
	C576.018616,119.763397 568.424805,117.117897 561.466187,121.973480 
	C562.566650,120.789558 563.900208,118.320419 565.395447,118.218292 
	C571.124084,117.827026 576.904785,118.195999 582.920105,118.647308 
z"/>
<path fill="#E65D5B" opacity="1.000000" stroke="none" 
	d="
M591.386719,131.954529 
	C592.014954,128.932877 592.985596,125.806862 593.991333,122.299263 
	C597.002502,126.093941 593.972046,128.880981 591.386719,131.954529 
z"/>
<path fill="#F54943" opacity="1.000000" stroke="none" 
	d="
M174.359497,142.891113 
	C176.032379,141.559448 178.060837,140.286072 180.462448,139.008118 
	C178.795425,140.318832 176.755249,141.634125 174.359497,142.891113 
z"/>
<path fill="#F54943" opacity="1.000000" stroke="none" 
	d="
M222.374603,135.904785 
	C223.163361,133.794998 224.254959,131.518829 225.686462,129.153015 
	C224.910034,131.288376 223.793732,133.513397 222.374603,135.904785 
z"/>
<path fill="#ED5450" opacity="1.000000" stroke="none" 
	d="
M401.540375,122.477554 
	C402.650513,121.179382 403.932281,120.074738 405.580383,118.957237 
	C405.946655,118.944389 406.033051,119.039719 405.967010,119.409454 
	C404.619568,120.871727 403.338135,121.964264 402.056732,123.056793 
	C401.941833,122.928223 401.826904,122.799652 401.540375,122.477554 
z"/>
<path fill="#E65D5B" opacity="1.000000" stroke="none" 
	d="
M560.715393,122.923950 
	C559.870117,124.752136 558.705200,126.741211 557.214600,128.851990 
	C558.057800,127.010750 559.226807,125.047806 560.715393,122.923950 
z"/>
<path fill="#E65D5B" opacity="1.000000" stroke="none" 
	d="
M556.643066,129.038696 
	C556.638733,130.631531 556.317749,132.362778 555.950256,134.468567 
	C551.931702,132.647705 554.650818,130.951324 556.643066,129.038696 
z"/>
<path fill="#E65D5B" opacity="1.000000" stroke="none" 
	d="
M588.031250,119.694908 
	C587.045471,119.847366 585.853943,119.667397 584.341553,119.324982 
	C585.288940,119.229187 586.557251,119.295837 588.031250,119.694908 
z"/>
<path fill="#E65D5B" opacity="1.000000" stroke="none" 
	d="
M591.992310,120.709564 
	C591.572754,120.847580 590.998291,120.686310 590.164246,120.370071 
	C590.548950,120.280174 591.193176,120.345222 591.992310,120.709564 
z"/>
<path fill="#E65D5B" opacity="1.000000" stroke="none" 
	d="
M593.997559,121.740555 
	C593.799683,121.872429 593.529419,121.708015 593.103882,121.347443 
	C593.252625,121.284286 593.578125,121.381950 593.997559,121.740555 
z"/>
<path fill="#000000" opacity="1.000000" stroke="none" 
	d="
M549.046326,260.924194 
	C553.830261,263.582611 558.599915,265.636230 562.698853,268.613434 
	C565.834412,270.890961 568.121887,274.336212 570.786621,277.262024 
	C567.537048,279.015198 564.472412,281.535370 561.001953,282.372192 
	C551.958069,284.552887 543.520691,289.923431 533.630798,287.984192 
	C532.547729,287.771820 531.433594,287.718109 530.955322,287.662750 
	C534.725586,277.662567 538.443237,267.801941 542.192688,257.857025 
	C544.248108,258.754303 546.495789,259.735535 549.046326,260.924194 
z"/>
<path fill="#000000" opacity="1.000000" stroke="none" 
	d="
M524.883179,250.736008 
	C531.486755,255.430481 532.241943,267.358276 524.497681,274.559967 
	C521.927368,276.950287 519.034912,279.106903 515.992920,280.853485 
	C509.946228,284.325195 503.047302,279.838165 503.055725,272.544861 
	C503.057587,270.929077 503.242676,269.011414 504.101501,267.748199 
	C509.268829,260.147888 515.549011,253.702667 524.123169,249.880554 
	C524.264038,249.817780 524.523865,249.790939 524.604797,249.871429 
	C524.796631,250.062119 524.914124,250.327606 524.883179,250.736008 
z"/>
<path fill="#000000" opacity="1.000000" stroke="none" 
	d="
M646.000854,198.202087 
	C644.406128,197.054932 643.103088,196.117233 641.511597,194.971893 
	C644.967407,190.789200 649.285767,189.141205 653.937805,190.229416 
	C660.077393,191.665619 660.126099,198.041550 663.320068,202.894531 
	C656.031067,205.162643 651.724487,199.586304 646.000854,198.202087 
z"/>
<path fill="#000000" opacity="1.000000" stroke="none" 
	d="
M573.906006,191.887360 
	C571.061279,193.712769 568.211182,195.362747 565.214722,196.679565 
	C564.186462,197.131470 562.508606,197.210632 561.618408,196.662613 
	C559.024292,195.065582 556.678345,193.065582 553.133240,190.392899 
	C560.869873,189.888870 567.392883,189.255920 573.906006,191.887360 
z"/>
<path fill="#000000" opacity="1.000000" stroke="none" 
	d="
M210.155151,225.135788 
	C211.384705,230.280594 212.933563,235.024582 213.512482,239.884109 
	C213.715897,241.591660 211.922150,244.035675 210.368134,245.346527 
	C207.456024,247.802948 204.053650,249.678146 199.815201,252.483398 
	C200.839478,241.096497 202.379761,231.096436 208.700333,221.530945 
	C209.318558,222.973755 209.705627,223.877090 210.155151,225.135788 
z"/>
<path fill="#000000" opacity="1.000000" stroke="none" 
	d="
M215.123474,294.903870 
	C213.219559,292.084290 211.476273,289.586853 209.595505,286.892487 
	C217.279144,284.751801 232.402054,294.388611 237.154999,303.774506 
	C231.508545,306.704254 222.384857,303.138153 215.123474,294.903870 
z"/>
<path fill="#F64741" opacity="1.000000" stroke="none" 
	d="
M158.046768,147.286453 
	C158.223221,146.952240 158.504684,146.747650 158.801514,146.568527 
	C158.816116,146.559723 158.965042,146.773560 159.051422,146.883743 
	C158.752563,147.062881 158.453705,147.242004 158.046768,147.286453 
z"/>
<path fill="#FD3F38" opacity="1.000000" stroke="none" 
	d="
M401.994446,123.422836 
	C403.338135,121.964264 404.619568,120.871727 406.010132,119.457169 
	C413.517761,117.550911 416.280792,118.460533 417.330109,124.015762 
	C417.843964,126.736320 416.408630,129.825043 415.619934,133.991425 
	C414.112244,130.101303 413.451294,127.462685 412.121521,125.220764 
	C410.720032,122.857986 408.541809,122.635643 406.264435,124.501221 
	C403.985016,126.368423 403.618225,128.629562 405.835297,130.362839 
	C409.043304,132.870804 412.678436,134.832413 416.471008,137.116104 
	C417.542603,139.643280 419.525940,142.835037 415.993622,144.001144 
	C413.156372,144.937836 409.374298,145.123520 407.614960,141.081635 
	C407.243286,140.227676 406.407593,139.537949 405.688110,138.879089 
	C399.678375,133.375565 399.187317,131.443726 401.994446,123.422836 
z"/>
</svg>